<svg id="Capa_1" data-name="Capa 1" xmlns="http://www.w3.org/2000/svg" viewBox="0 0 560 474.38"><defs><style>.cls-1{fill:#243492;}.cls-2{fill:#1d1d1b;}.cls-3{fill:#b1b1b1;}</style></defs><path class="cls-1" d="M566.6,590.83,361,495.88V306L566.6,211l205.64,95V495.88ZM395,480.18,566.6,559.43l171.64-79.25V321.66L566.6,242.4,395,321.66Z" transform="translate(-287 -211)"/><path class="cls-2" d="M659.81,428.48" transform="translate(-287 -211)"/><path class="cls-1" d="M467.94,421.5c3.47,5.46,16.69,24.61,44.39,34.12a106.41,106.41,0,0,0,54.37,3.44V433a78.06,78.06,0,0,1-46.46-4.3c-5.15-2.17-14.92-6.29-22.36-15.2s-8.59-17.9-9.29-24.37c-2.81-25.64,12.47-45.37,16.17-49.89,2.47-3,14.49-17.24,37.51-26.95A117.85,117.85,0,0,1,567,304.94V280.45a141.91,141.91,0,0,0-34.71,7.43,128.07,128.07,0,0,0-36.13,19.79c-19.44,15.31-28.22,32.23-32,41.29-7.61,18.18-7.06,33.18-6.88,36.7C457.67,393.31,458.55,406.73,467.94,421.5Z" transform="translate(-287 -211)"/><path class="cls-1" d="M665.49,381.32C662,375.86,648.8,356.7,621.1,347.2a106.41,106.41,0,0,0-54.37-3.44v26.09a78,78,0,0,1,46.45,4.3c5.15,2.17,14.93,6.28,22.37,15.2s8.59,17.9,9.29,24.37c2.81,25.64-12.47,45.36-16.17,49.89-13.57,16.6-31,24.21-37.51,26.95a117.22,117.22,0,0,1-24.44,7.27l.06,23.64a129.78,129.78,0,0,0,34.36-6.54,124.88,124.88,0,0,0,36.13-19.78c19.44-15.32,28.22-32.24,32-41.29,7.61-18.19,7.06-33.19,6.88-36.7C675.76,409.51,674.88,396.09,665.49,381.32Z" transform="translate(-287 -211)"/><path class="cls-3" d="M541.84,319.53c-6.55,2.89-29.54,13.9-41,37a63.68,63.68,0,0,0-6.53,29.82,62.62,62.62,0,0,0,2.4,15.49h31.32A46.69,46.69,0,0,1,526,386.91a48.63,48.63,0,0,1,7.23-23.8,49.8,49.8,0,0,1,18.24-18.64c10.73-6.22,21.49-7.15,29.25-7.74,30.77-2.34,54.45,10.4,59.88,13.47A87.13,87.13,0,0,1,673,381.46a77.09,77.09,0,0,1,8.73,20.35h29.37a86.82,86.82,0,0,0-8.85-28.67A101.85,101.85,0,0,0,678.46,343c-18.38-16.2-38.69-23.51-49.55-26.67a143.48,143.48,0,0,0-44-5.73C575.68,311,559.57,311.7,541.84,319.53Z" transform="translate(-287 -211)"/><path class="cls-3" d="M592.16,484.11c6.55-2.89,29.54-13.9,41-37a63.6,63.6,0,0,0,6.54-29.82,63,63,0,0,0-2.41-15.48H605.92A46.09,46.09,0,0,1,608,416.73a48.54,48.54,0,0,1-7.23,23.8,49.8,49.8,0,0,1-18.24,18.64c-10.73,6.22-21.48,7.15-29.25,7.74-30.77,2.33-54.45-10.4-59.87-13.48a87.11,87.11,0,0,1-32.35-31.25,77.17,77.17,0,0,1-8.73-20.37H423a86.79,86.79,0,0,0,8.85,28.68,101.73,101.73,0,0,0,23.74,30.11c18.38,16.2,38.69,23.51,49.56,26.67a143.76,143.76,0,0,0,44,5.73C558.32,492.67,574.43,491.93,592.16,484.11Z" transform="translate(-287 -211)"/><path class="cls-1" d="M290.37,663.52a30.42,30.42,0,0,1-3.37-14,29.76,29.76,0,0,1,3.37-13.89,34.45,34.45,0,0,1,9.35-11.38,42.54,42.54,0,0,1,13.8-7.71,50.34,50.34,0,0,1,16.84-2.78,49.74,49.74,0,0,1,19.35,3.77,41,41,0,0,1,14.89,10l-12.72,8.16a27.26,27.26,0,0,0-9.34-6.28,30.77,30.77,0,0,0-12.18-2.33,30.17,30.17,0,0,0-19.23,6.55c-5.11,4.21-7.94,9.85-7.94,15.86s2.83,11.65,7.94,15.86A29.78,29.78,0,0,0,330.36,672a31.37,31.37,0,0,0,12.29-2.42,27.31,27.31,0,0,0,9.34-6.36l12.83,8.06a42.34,42.34,0,0,1-14.89,10.22,51.3,51.3,0,0,1-19.57,3.85,50.15,50.15,0,0,1-16.84-2.87,44.25,44.25,0,0,1-13.8-7.61A36.47,36.47,0,0,1,290.37,663.52Z" transform="translate(-287 -211)"/><path class="cls-1" d="M384.17,685.29V614h61.41v12.9H399.82v15.87h38.7v12.9h-38.7v16.76h45.76v12.9H384.17Z" transform="translate(-287 -211)"/><path class="cls-1" d="M468.63,663.52a30.42,30.42,0,0,1-3.37-14,29.76,29.76,0,0,1,3.37-13.89A34.57,34.57,0,0,1,478,624.27a42.54,42.54,0,0,1,13.8-7.71,50.4,50.4,0,0,1,16.85-2.78A49.73,49.73,0,0,1,528,617.55a41,41,0,0,1,14.89,10l-12.71,8.16a27.21,27.21,0,0,0-9.35-6.28,30.76,30.76,0,0,0-12.17-2.33,30.17,30.17,0,0,0-19.24,6.55c-5.11,4.21-7.94,9.85-7.94,15.86s2.83,11.65,7.94,15.86A29.79,29.79,0,0,0,508.63,672a31.35,31.35,0,0,0,12.28-2.42,27.31,27.31,0,0,0,9.34-6.36l12.83,8.06a42.34,42.34,0,0,1-14.89,10.22,51.29,51.29,0,0,1-19.56,3.85,50.21,50.21,0,0,1-16.85-2.87A44.25,44.25,0,0,1,478,674.9,36.61,36.61,0,0,1,468.63,663.52Z" transform="translate(-287 -211)"/><path class="cls-1" d="M574.39,685.38h-16.3l34.23-56.59.87-1.47,7.72-12.85,7.82,12.94.33.6,34.67,57.37h-16.3l-6.85-11H581.13Zm13.91-23h24.89l-12.61-20.27Z" transform="translate(-287 -211)"/><path class="cls-1" d="M723.84,685.29H660.7V613.78H676v58.79h47.82Z" transform="translate(-287 -211)"/><path class="cls-1" d="M761.57,614h21.3A35.55,35.55,0,0,1,804.49,621a26.2,26.2,0,0,1,6.85,7.89,19.91,19.91,0,0,1,0,19.71,25.9,25.9,0,0,1-6.85,7.8,34,34,0,0,1-9.88,5.19,36,36,0,0,1-11.63,2H761.57v21.77h-16.2V614Zm0,13.35v22.94h21.3a17.57,17.57,0,0,0,10.54-3.49c2.83-2.24,4.35-5,4.35-8a10.1,10.1,0,0,0-4.35-8,17.58,17.58,0,0,0-10.54-3.5Z" transform="translate(-287 -211)"/><path class="cls-1" d="M847,685.38H831.35V614.47H847Z" transform="translate(-287 -211)"/></svg>