<svg id="Capa_1" data-name="Capa 1" xmlns="http://www.w3.org/2000/svg" viewBox="0 0 411.27 462"><defs><style>.cls-1{fill:#1d1d1b;}.cls-2{fill:#243492;}.cls-3{fill:#b1b1b1;}</style></defs><path class="cls-1" d="M992.81,838" transform="translate(-694.36 -573.5)"/><path class="cls-2" d="M800.94,829.48c3.47,6.64,16.69,29.94,44.39,41.5a88.35,88.35,0,0,0,54.37,4.19V843.43a65.1,65.1,0,0,1-17.89,2.09,66.59,66.59,0,0,1-28.57-7.32c-5.15-2.64-14.92-7.64-22.36-18.49s-8.59-21.77-9.29-29.64c-2.81-31.18,12.47-55.18,16.17-60.68A102.95,102.95,0,0,1,900,687.7V657.92a119.91,119.91,0,0,0-34.71,9A122.2,122.2,0,0,0,829.16,691a127.05,127.05,0,0,0-32,50.22,124.31,124.31,0,0,0-6.88,44.64C790.67,795.19,791.55,811.51,800.94,829.48Z" transform="translate(-694.36 -573.5)"/><path class="cls-2" d="M998.49,780.61C995,774,981.8,750.67,954.1,739.11a88.35,88.35,0,0,0-54.37-4.19v31.74a65,65,0,0,1,17.89-2.1,66.59,66.59,0,0,1,28.56,7.33c5.15,2.64,14.93,7.64,22.37,18.48s8.59,21.78,9.29,29.65c2.81,31.18-12.47,55.18-16.17,60.68a98.38,98.38,0,0,1-37.51,32.78,101.84,101.84,0,0,1-24.44,8.84l.06,28.76a109.38,109.38,0,0,0,34.36-8,119.3,119.3,0,0,0,36.13-24.06,127.19,127.19,0,0,0,32-50.22,124.31,124.31,0,0,0,6.88-44.64C1008.76,814.9,1007.88,798.57,998.49,780.61Z" transform="translate(-694.36 -573.5)"/><path class="cls-3" d="M874.84,705.45c-6.55,3.51-29.54,16.91-41,45a92,92,0,0,0-4.13,55.1h31.32A68.2,68.2,0,0,1,859,787.4a69.06,69.06,0,0,1,7.23-28.94c2.6-5.22,7.54-15.12,18.24-22.67s21.49-8.7,29.25-9.42c30.77-2.84,54.45,12.65,59.88,16.39a99,99,0,0,1,32.34,38,105.63,105.63,0,0,1,8.73,24.75h29.37a123,123,0,0,0-8.85-34.87,124.56,124.56,0,0,0-73.29-69,119.3,119.3,0,0,0-44-7C908.68,695,892.57,695.93,874.84,705.45Z" transform="translate(-694.36 -573.5)"/><path class="cls-3" d="M925.16,905.64c6.55-3.52,29.54-16.92,41-45a91.8,91.8,0,0,0,4.13-55.1H938.92A67.3,67.3,0,0,1,941,823.68a69,69,0,0,1-7.23,29c-2.6,5.22-7.54,15.12-18.24,22.66S894,884,886.27,884.71c-30.77,2.84-54.45-12.64-59.87-16.39a99.13,99.13,0,0,1-32.35-38,105.79,105.79,0,0,1-8.73-24.78H756a123,123,0,0,0,8.85,34.89,124.54,124.54,0,0,0,73.3,69.05,119.6,119.6,0,0,0,44,7C891.32,916,907.43,915.15,925.16,905.64Z" transform="translate(-694.36 -573.5)"/><path class="cls-2" d="M900,1035.5,694.36,920V689L900,573.5,1105.64,689V920ZM728.36,900.9,900,997.31l171.64-96.41V708.1L900,611.69,728.36,708.1Z" transform="translate(-694.36 -573.5)"/></svg>